<svg width="256" height="256" viewBox="0 0 256 256" fill="none" xmlns="http://www.w3.org/2000/svg">
<circle cx="128" cy="128" r="128" fill="#2D3356"/>
<path d="M149.902 72C135.171 72 121.122 77.7873 110.683 87.9887C105.317 85.7326 99.5609 84.5555 93.6097 84.5555C69.6097 84.5555 50 104.272 50 128.5C50 152.728 69.6097 172.444 93.7072 172.444C99.5609 172.444 105.317 171.267 110.683 169.011C120.829 178.918 134.585 185 149.805 185C180.829 185 206 159.693 206 128.5C206.097 97.3073 180.927 72 149.902 72ZM149.902 172.444C125.805 172.444 106.195 152.728 106.195 128.5H93.7072C93.7072 139.584 96.9267 149.884 102.39 158.614C99.5609 159.398 96.7316 159.889 93.8048 159.889C76.5365 159.889 62.5853 145.764 62.5853 128.5C62.5853 111.138 76.6341 97.1111 93.8048 97.1111C100.634 97.1111 107.073 99.2691 112.536 103.389C120.439 109.372 125.024 118.593 125.024 128.5H137.512C137.512 115.356 131.854 103.291 121.902 94.855C129.707 88.283 139.561 84.5555 149.902 84.5555C174 84.5555 193.609 104.272 193.609 128.5C193.609 152.728 174 172.444 149.902 172.444Z" fill="white"/>
</svg>
