<?xml version="1.0" encoding="UTF-8"?>
<svg id="Layer_2" data-name="Layer 2" xmlns="http://www.w3.org/2000/svg" viewBox="0 0 680 489.8">
  <defs>
    <style>
      .cls-1 {
        fill: #0050c3;
        stroke-width: 0px;
      }
    </style>
  </defs>
  <g id="Isologo">
    <path class="cls-1" d="M435.51,0h-.27c-.09,0-.18,0-.27,0-63.92.11-124.82,25.19-170.27,69.39-23.25-9.86-48.33-14.97-74.22-14.97C85.45,54.42,0,139.87,0,244.9s85.45,190.48,190.48,190.48c25.49,0,50.7-5.2,74.02-15.02,44.14,42.93,104.32,69.44,170.6,69.44,135.04,0,244.9-109.86,244.9-244.9S570.36.22,435.51,0ZM435.1,435.37c-105.03,0-190.48-85.45-190.48-190.48h-54.42c0,48.03,13.95,92.84,37.94,130.69-12.19,3.5-24.87,5.37-37.67,5.37-75.02,0-136.05-61.03-136.05-136.05S115.46,108.84,190.48,108.84c29.71,0,57.93,9.4,81.61,27.18,34.6,25.99,54.44,65.67,54.44,108.87h54.42c0-56.99-24.68-109.59-68.03-145.89,34.05-28.58,77.24-44.55,122.32-44.59,104.97.07,190.34,85.49,190.34,190.48s-85.45,190.48-190.48,190.48Z"/>
  </g>
</svg>